<?xml version="1.0" encoding="UTF-8"?>
<svg id="Livello_1" data-name="Livello 1" xmlns="http://www.w3.org/2000/svg" viewBox="0 0 1000 259.81">
  <defs>
    <style>
      .cls-1 {
        fill: #2b4093;
      }
    </style>
  </defs>
  <path class="cls-1" d="m479.54,73.08c-4.01-9.21-9.59-16.83-16.72-22.91h.02c-39.82-36.91-146.54-10.81-146.54-10.81l5.13,32.96c11.58-1.27,23.62-2.9,36.09-3.66,12.49-.76,23.95-1.18,33.47-1.18,12.87,0,27.62,2.13,35.35,5.56,7.72,3.43,13.26,10.45,16.6,19.85,1.99,5.58,3.38,13.27,4.19,22.21h-80.92c-19.3,0-33.13,4.38-41.5,13.15-8.36,8.76-12.41,21.66-12.16,38.68.26,20.58,7.08,36.13,20.46,46.68,13.39,10.54,30.29,15.81,60.91,15.81,21.88,0,41.75-3.05,55.51-9.14,13.77-6.1,23.81-16.32,30.11-30.68,6.31-14.35,9.46-33.85,9.46-58.49,0-22.87-3.15-43.55-9.46-58.03Zm-35.64,99.18c-2.7,8.64-7.4,14.61-14.09,17.91-6.69,3.3-22.7,4.95-34.8,4.95-13.9,0-25.74-2.04-31.53-6.1-5.79-4.07-9.83-11.3-10.09-21.72,0-6.61,1.22-12.19,3.67-16.77,2.45-4.57,9.07-6.86,17.81-6.86h72.95c-.41,12.04-1.72,21.56-3.91,28.58Z"/>
  <path class="cls-1" d="m573.38,190.71l107.1-115.93c3.15-3.41,4.89-7.87,4.89-12.51v-15.04c0-6.69-5.42-12.11-12.11-12.11h-151.97v34.36h110.44l-107.09,115.93c-3.15,3.41-4.89,7.87-4.89,12.51v14.65c0,6.69,5.42,12.11,12.11,12.11h155.05v-33.97h-113.54Z"/>
  <path class="cls-1" d="m727.63,186.74c4.01,9.21,9.59,16.83,16.72,22.91h-.02c39.82,36.91,146.54,10.81,146.54,10.81l-5.13-32.96c-11.58,1.27-23.62,2.9-36.09,3.66-12.49.76-23.95,1.18-33.47,1.18-12.87,0-27.62-2.13-35.35-5.56-7.72-3.43-13.26-10.45-16.6-19.85-1.99-5.58-3.38-13.27-4.19-22.21h80.92c19.3,0,33.13-4.38,41.5-13.15,8.36-8.76,12.41-21.66,12.16-38.68-.26-20.58-7.08-36.13-20.46-46.68-13.39-10.54-30.29-15.81-60.91-15.81-21.88,0-41.75,3.05-55.51,9.14-13.77,6.1-23.81,16.32-30.11,30.68-6.31,14.35-9.46,33.85-9.46,58.49,0,22.87,3.15,43.55,9.46,58.03Zm35.64-99.18c2.7-8.64,7.4-14.61,14.09-17.91,6.69-3.3,22.7-4.95,34.8-4.95,13.9,0,25.74,2.04,31.53,6.1,5.79,4.07,9.83,11.3,10.09,21.72,0,6.61-1.22,12.19-3.67,16.77-2.45,4.57-9.07,6.86-17.81,6.86h-72.95c.41-12.04,1.72-21.56,3.91-28.58Z"/>
  <g>
    <path class="cls-1" d="m105.36,150.17h78.84c15.05,0,20.61-5.5,20.61-20.27s-5.5-20.27-20.61-20.27h-78.84v40.53Z"/>
    <path class="cls-1" d="m179.74,30.4h-74.38v36.1h77.09c43.62,0,56.73,14.45,56.73,63.42s-12.58,63.42-56.73,63.42h-77.09v36.08h74.38c73.92,0,101.21-27.01,101.21-99.5s-27.01-99.5-101.21-99.5Z"/>
  </g>
</svg>